<svg width="23" height="27" viewBox="0 0 23 27" fill="none" xmlns="http://www.w3.org/2000/svg">
<path d="M16.3395 0C14.9221 0.0980436 13.2653 1.00536 12.2998 2.18687C11.4191 3.2587 10.6946 4.85066 10.9771 6.39776C12.5258 6.44595 14.1261 5.51703 15.0533 4.31558C15.9208 3.19722 16.5772 1.61523 16.3395 0Z" fill="black"/>
<path d="M21.9412 8.9203C20.5802 7.21367 18.6675 6.22327 16.8612 6.22327C14.4766 6.22327 13.4679 7.36489 11.8111 7.36489C10.1028 7.36489 8.80502 6.22659 6.74278 6.22659C4.7171 6.22659 2.56014 7.4646 1.19252 9.58167C-0.730133 12.5629 -0.401106 18.168 2.71468 22.9422C3.82972 24.6505 5.31865 26.5715 7.26623 26.5881C8.99944 26.6047 9.488 25.4764 11.8361 25.4647C14.1841 25.4514 14.6295 26.603 16.3594 26.5848C18.3086 26.5698 19.879 24.4411 20.994 22.7328C21.7933 21.5081 22.0907 20.8916 22.7106 19.509C18.2022 17.7924 17.4794 11.3814 21.9412 8.9203Z" fill="black"/>
</svg>
