<svg width="27" height="27" viewBox="0 0 27 27" fill="none" xmlns="http://www.w3.org/2000/svg">
<path fill-rule="evenodd" clip-rule="evenodd" d="M23.8186 0H2.76959C1.23999 0 0 1.23999 0 2.76959V23.8186C0 25.3482 1.23999 26.5882 2.76959 26.5882H14.4019V16.6176H11.6323C11.3264 16.6176 11.0784 16.3696 11.0784 16.0637V12.7402C11.0784 12.4343 11.3264 12.1862 11.6323 12.1862H14.4019V9.41665C14.4019 6.05152 17.1299 3.32353 20.495 3.32353H22.7108C23.0167 3.32353 23.2647 3.57155 23.2647 3.87742V7.20095C23.2647 7.50687 23.0167 7.75489 22.7108 7.75489H20.4951C19.5773 7.75489 18.8333 8.49889 18.8333 9.41665V12.1862H22.7108C22.7701 12.1863 22.8291 12.1959 22.8854 12.2146C23.1756 12.3113 23.3326 12.625 23.2359 12.9152L22.128 16.2388C22.0527 16.4649 21.8412 16.6175 21.6029 16.6176H18.8333V26.5882H23.8186C25.3482 26.5882 26.5882 25.3482 26.5882 23.8186V2.76959C26.5882 1.23999 25.3482 0 23.8186 0Z" fill="#2196F3"/>
</svg>
