<svg width="27" height="27" viewBox="0 0 27 27" fill="none" xmlns="http://www.w3.org/2000/svg">
<path d="M5.89251 16.0676L4.96701 19.5226L1.58434 19.5941C0.573413 17.7191 0 15.5738 0 13.2941C0 11.0896 0.536127 9.01072 1.48645 7.18024H1.48718L4.49871 7.73236L5.81794 10.7258C5.54183 11.5308 5.39134 12.3949 5.39134 13.2941C5.39144 14.2699 5.56821 15.205 5.89251 16.0676Z" fill="#FBBB00"/>
<path d="M26.356 10.8105C26.5087 11.6147 26.5883 12.4453 26.5883 13.2941C26.5883 14.2458 26.4882 15.1742 26.2976 16.0698C25.6504 19.1172 23.9594 21.7782 21.6169 23.6613L21.6162 23.6606L17.823 23.467L17.2861 20.1157C18.8405 19.2041 20.0553 17.7775 20.6951 16.0698H13.5864V10.8105H20.7989H26.356Z" fill="#518EF8"/>
<path d="M21.6162 23.6607L21.6169 23.6614C19.3387 25.4926 16.4446 26.5883 13.2943 26.5883C8.23153 26.5883 3.82988 23.7585 1.58447 19.5943L5.89265 16.0677C7.01533 19.064 9.90571 21.1969 13.2943 21.1969C14.7507 21.1969 16.1153 20.8031 17.2861 20.1158L21.6162 23.6607Z" fill="#28B446"/>
<path d="M21.7796 3.06056L17.4729 6.5864C16.2611 5.82895 14.8286 5.39139 13.294 5.39139C9.82875 5.39139 6.88431 7.62215 5.81787 10.7259L1.48706 7.18028H1.48633C3.69886 2.91448 8.15603 0 13.294 0C16.5196 0 19.4772 1.14901 21.7796 3.06056Z" fill="#F14336"/>
</svg>
