<svg width="142" height="22" viewBox="0 0 142 22" fill="none" xmlns="http://www.w3.org/2000/svg">
<path d="M23.9943 21.6174H16.6288L15.8568 19.1304H8.13748L7.36555 21.6174H0L7.91234 0.350708H16.082L23.9943 21.6174ZM14.12 13.5188L11.9972 6.66375L9.87434 13.5188H14.12Z" fill="#0E83D9"/>
<path d="M39.7856 21.6174H25.151V0.350708H31.6481V16.0058H39.7856V21.6174Z" fill="#0E83D9"/>
<path d="M57.0297 21.6174H42.3951V0.350708H48.8923V16.0058H57.0297V21.6174Z" fill="#0E83D9"/>
<path d="M72.2545 21.6174H65.7574V5.96232H60V0.350724H77.9797V5.96232H72.2545V21.6174Z" fill="#E70BDE"/>
<path d="M98.6031 18.9391C96.373 20.9797 93.5855 22 90.2404 22C86.8954 22 84.0971 20.9797 81.8456 18.9391C79.6156 16.8773 78.5006 14.2309 78.5006 11C78.5006 7.76908 79.6156 5.13333 81.8456 3.09275C84.0971 1.03092 86.8954 0 90.2404 0C93.5855 0 96.373 1.03092 98.6031 3.09275C100.855 5.13333 101.98 7.76908 101.98 11C101.98 14.2309 100.855 16.8773 98.6031 18.9391ZM86.5094 14.7942C87.4743 15.8145 88.718 16.3246 90.2404 16.3246C91.7628 16.3246 92.9958 15.8145 93.9393 14.7942C94.9042 13.7739 95.3867 12.5092 95.3867 11C95.3867 9.49082 94.9042 8.22609 93.9393 7.2058C92.9958 6.18551 91.7628 5.67536 90.2404 5.67536C88.718 5.67536 87.4743 6.18551 86.5094 7.2058C85.5659 8.22609 85.0942 9.49082 85.0942 11C85.0942 12.5092 85.5659 13.7739 86.5094 14.7942Z" fill="#E70BDE"/>
<path d="M115.219 21.6174H108.721V13.1681L100.68 0.350724H107.982L111.97 7.52464L115.894 0.350724H123.195L115.219 13.1681V21.6174Z" fill="#E70BDE"/>
<path d="M132.057 22C127.94 22 124.617 20.8734 122.087 18.6203L125.464 13.8377C127.394 15.6657 129.699 16.5797 132.379 16.5797C133.966 16.5797 134.759 16.1971 134.759 15.4319C134.759 15.0705 134.341 14.7942 133.505 14.6029C132.69 14.4116 131.693 14.2097 130.513 13.9971C129.356 13.7845 128.187 13.4763 127.008 13.0725C125.85 12.6686 124.853 11.9565 124.016 10.9362C123.202 9.91594 122.794 8.62995 122.794 7.07826C122.794 5.14396 123.577 3.48599 125.142 2.10435C126.729 0.722705 128.916 0.0318836 131.704 0.0318836C135.327 0.0318836 138.361 1.02029 140.806 2.9971L137.332 7.55652C135.467 6.15362 133.365 5.45217 131.028 5.45217C129.935 5.45217 129.388 5.77101 129.388 6.40869C129.388 6.70628 129.677 6.96135 130.256 7.17391C130.857 7.38647 131.596 7.55652 132.475 7.68406C133.355 7.79034 134.309 8.0029 135.338 8.32174C136.389 8.61932 137.354 8.98068 138.233 9.4058C139.112 9.83092 139.841 10.5005 140.42 11.4145C141.02 12.3072 141.321 13.37 141.321 14.6029C141.321 16.9411 140.495 18.7585 138.844 20.0551C137.214 21.3517 134.952 22 132.057 22Z" fill="#E70BDE"/>
</svg>
